# Blender v3.1.2 OBJ File: 'paper_tidy.blend'
# www.blender.org
o paper_tidy
v -0.044426 0.000000 0.062042
v -0.044426 0.091343 0.062042
v -0.044426 0.269654 -0.177706
v -0.044426 0.000000 -0.177706
v -0.044426 0.269654 -0.096117
v -0.044426 0.000000 -0.096117
v -0.041853 0.003564 0.059048
v -0.041853 0.091817 0.059048
v -0.041853 0.269654 -0.175266
v -0.041853 0.003564 -0.175266
v -0.041853 0.003564 -0.096117
v -0.041853 0.269654 -0.096117
v 0.000000 0.091343 0.062042
v 0.000000 0.000000 0.062042
v 0.000000 0.000000 -0.096117
v 0.000000 0.000000 -0.177706
v 0.000000 0.269654 -0.177706
v 0.000000 0.269654 -0.175266
v 0.000000 0.003564 -0.175266
v 0.000000 0.003564 -0.096117
v 0.000000 0.003564 0.059048
v 0.000000 0.091817 0.059048
v 0.044426 0.000000 0.062042
v 0.044426 0.091343 0.062042
v 0.044426 0.269654 -0.177706
v 0.044426 0.000000 -0.177706
v 0.044426 0.269654 -0.096117
v 0.044426 0.000000 -0.096117
v 0.041853 0.003564 0.059048
v 0.041853 0.091817 0.059048
v 0.041853 0.269654 -0.175266
v 0.041853 0.003564 -0.175266
v 0.041853 0.003564 -0.096117
v 0.041853 0.269654 -0.096117
v -0.024570 0.071055 0.065040
v -0.021937 0.073696 0.062160
v -0.024570 0.075111 0.062160
v -0.021012 0.071055 0.062160
v -0.024570 0.066430 0.062160
v -0.021937 0.068119 0.062160
v -0.024570 0.076644 0.064566
v -0.024096 0.077118 0.064567
v -0.024570 0.077592 0.065040
v -0.025043 0.077118 0.065040
v -0.024570 0.075111 0.064566
v -0.025043 0.074948 0.065040
v -0.024570 0.074474 0.065040
v -0.021937 0.073696 0.064566
v -0.022319 0.073353 0.065040
v -0.024096 0.064993 0.064567
v -0.024570 0.065467 0.064566
v -0.025043 0.064993 0.065040
v -0.024570 0.064519 0.065040
v -0.024570 0.066430 0.064566
v -0.024570 0.067046 0.065040
v -0.025043 0.066558 0.065040
v -0.021012 0.071055 0.064567
v -0.021487 0.071055 0.065040
v -0.021937 0.068119 0.064566
v -0.022334 0.068436 0.065040
v -0.024570 0.076644 0.062160
v -0.024096 0.077118 0.062160
v -0.024096 0.064993 0.062160
v -0.024570 0.065467 0.062160
v -0.024934 0.064601 0.065040
v -0.024460 0.065086 0.064567
v -0.024460 0.065086 0.062160
v -0.024934 0.077510 0.065040
v -0.024460 0.077025 0.064567
v -0.024460 0.077025 0.062160
v -0.024209 0.074776 0.064567
v -0.024252 0.074796 0.062160
v -0.024187 0.066797 0.064566
v -0.024257 0.066755 0.062160
v -0.027516 0.062282 0.062104
v -0.024570 0.062282 0.062104
v -0.027516 0.079572 0.062104
v -0.024570 0.079572 0.062104
v -0.027516 0.064993 0.062104
v -0.027516 0.066481 0.062104
v -0.027516 0.077118 0.062104
v -0.027516 0.071055 0.062104
v -0.027516 0.074948 0.062104
v -0.027514 0.062282 0.064446
v -0.027071 0.062681 0.065040
v -0.024570 0.062282 0.064446
v -0.024570 0.062674 0.065040
v -0.027514 0.079572 0.064446
v -0.027042 0.079194 0.065040
v -0.024570 0.079572 0.064446
v -0.024570 0.079177 0.065040
v -0.027514 0.064993 0.064446
v -0.026921 0.064993 0.065040
v -0.027514 0.066481 0.064446
v -0.026921 0.066499 0.065040
v -0.027514 0.077118 0.064446
v -0.026921 0.077118 0.065040
v -0.027514 0.071055 0.064446
v -0.026921 0.071055 0.065040
v -0.027514 0.074948 0.064446
v -0.026921 0.074948 0.065040
v -0.024902 0.066921 0.065040
v -0.024509 0.066712 0.062160
v -0.024473 0.066733 0.064566
v -0.024480 0.074885 0.062160
v -0.024459 0.074875 0.064566
v -0.024876 0.074643 0.065040
v 0.024097 0.064993 0.062160
v 0.021938 0.068119 0.062160
v 0.021013 0.071055 0.062160
v 0.021938 0.073696 0.064566
v 0.021013 0.071055 0.064567
v 0.021938 0.068119 0.064566
v 0.024571 0.064519 0.065040
v 0.024571 0.062674 0.065040
v 0.025044 0.064993 0.065040
v 0.026922 0.064993 0.065040
v 0.027072 0.062681 0.065040
v 0.024935 0.064601 0.065040
v 0.024097 0.064993 0.064566
v 0.024571 0.065467 0.062160
v 0.024461 0.065086 0.062160
v 0.024461 0.065086 0.064567
v 0.024571 0.065467 0.064566
v 0.024571 0.077592 0.065040
v 0.024571 0.079177 0.065040
v 0.027043 0.079194 0.065040
v 0.024935 0.077510 0.065040
v 0.024097 0.077118 0.064566
v 0.024461 0.077025 0.064567
v 0.024571 0.076644 0.064566
v 0.026922 0.077118 0.065040
v 0.025044 0.077118 0.065040
v 0.024571 0.062282 0.064446
v 0.027516 0.062282 0.064446
v 0.027516 0.079572 0.064446
v 0.024571 0.079572 0.064446
v 0.027516 0.064993 0.064446
v 0.027516 0.077118 0.064446
v 0.027516 0.074948 0.064446
v 0.024258 0.066755 0.062160
v 0.026922 0.066499 0.065040
v 0.025044 0.066558 0.065040
v 0.024571 0.066430 0.062160
v 0.024571 0.066430 0.064566
v 0.024509 0.066712 0.062160
v 0.027516 0.066481 0.064446
v 0.027516 0.071055 0.064446
v 0.024571 0.075111 0.062160
v 0.024571 0.076644 0.062160
v 0.024481 0.074885 0.062160
v 0.021938 0.073696 0.062160
v 0.024460 0.074875 0.064567
v 0.024571 0.075111 0.064566
v 0.026922 0.074948 0.065040
v 0.025044 0.074948 0.065040
v 0.024097 0.077118 0.062160
v 0.024461 0.077025 0.062160
v 0.024211 0.074776 0.064567
v 0.024252 0.074796 0.062160
v 0.026922 0.071055 0.065040
v 0.024902 0.066921 0.065040
v 0.024571 0.067046 0.065040
v 0.024571 0.071055 0.065040
v 0.021487 0.071055 0.065040
v 0.022320 0.073353 0.065040
v 0.024571 0.074474 0.065040
v 0.022335 0.068436 0.065040
v 0.024877 0.074643 0.065040
v 0.024187 0.066797 0.064566
v 0.024474 0.066733 0.064566
v 0.024571 0.079572 0.062104
v 0.027516 0.079572 0.062104
v 0.027516 0.077118 0.062104
v 0.027516 0.074948 0.062104
v 0.027516 0.071055 0.062104
v 0.027516 0.066481 0.062104
v 0.027516 0.064993 0.062104
v 0.027516 0.062282 0.062104
v 0.024571 0.062282 0.062104
v -0.000043 0.071055 0.062777
v -0.013358 0.071055 0.062569
v -0.000043 0.064993 0.062743
v -0.000043 0.077118 0.062462
v -0.013358 0.064993 0.062530
v -0.013358 0.077118 0.062128
v -0.024957 0.064993 0.062127
v -0.024957 0.071055 0.062127
v -0.024957 0.077118 0.062127
v 0.013270 0.071055 0.062569
v 0.013270 0.064993 0.062307
v 0.013270 0.077118 0.062128
v 0.024869 0.071055 0.062127
v 0.024869 0.064993 0.062127
v 0.024869 0.077118 0.062127
vt 0.109002 0.008376
vt 0.109002 0.340952
vt 0.008375 0.340952
vt 0.008376 0.008376
vt 0.709913 0.581738
vt 0.709913 0.685754
vt 0.706345 0.691309
vt 0.706345 0.581545
vt 0.349057 0.587362
vt 0.400676 0.587362
vt 0.400676 0.778734
vt 0.349057 0.778734
vt 0.591976 0.357703
vt 0.591976 0.685885
vt 0.400604 0.466550
vt 0.400604 0.357703
vt 0.689594 0.357703
vt 0.689594 0.685885
vt 0.304067 0.008376
vt 0.304067 0.121034
vt 0.777715 0.008376
vt 0.777715 0.336555
vt 0.726096 0.336555
vt 0.726096 0.008375
vt 0.709913 0.362014
vt 0.706345 0.357703
vt 0.763450 0.685754
vt 0.763379 0.691309
vt 0.348985 0.466550
vt 0.348985 0.357703
vt 0.349057 0.489745
vt 0.400676 0.489745
vt 0.358860 0.008376
vt 0.358860 0.121034
vt 0.766462 0.357703
vt 0.766437 0.360909
vt 0.955671 0.203440
vt 0.955671 0.304067
vt 0.900878 0.304067
vt 0.900878 0.203440
vt 0.837182 0.690280
vt 0.837182 0.357703
vt 0.891975 0.357703
vt 0.891975 0.690280
vt 0.900878 0.008376
vt 0.955671 0.008376
vt 0.608718 0.008375
vt 0.709344 0.008375
vt 0.709345 0.340952
vt 0.608718 0.340952
vt 0.817004 0.584435
vt 0.820431 0.584326
vt 0.820431 0.691309
vt 0.817004 0.685754
vt 0.297438 0.778734
vt 0.297438 0.587362
vt 0.105993 0.357703
vt 0.297366 0.357703
vt 0.297366 0.466550
vt 0.105993 0.685885
vt 0.008375 0.357703
vt 0.008375 0.685885
vt 0.413653 0.008376
vt 0.413653 0.121034
vt 0.829334 0.008376
vt 0.829334 0.336555
vt 0.817004 0.362014
vt 0.820431 0.357703
vt 0.297438 0.489745
vt 0.846084 0.203440
vt 0.846084 0.304067
vt 0.946768 0.690280
vt 0.946768 0.357703
vt 0.846084 0.008375
vt 0.033500 0.768448
vt 0.033490 0.772243
vt 0.030521 0.772235
vt 0.030532 0.768439
vt 0.115702 0.706733
vt 0.116355 0.707290
vt 0.115367 0.710057
vt 0.114547 0.710051
vt 0.116370 0.713214
vt 0.115691 0.713730
vt 0.119585 0.717595
vt 0.121915 0.717650
vt 0.121996 0.720463
vt 0.119409 0.718106
vt 0.030517 0.777413
vt 0.033485 0.777404
vt 0.033487 0.777892
vt 0.030518 0.777902
vt 0.118837 0.716958
vt 0.118701 0.717382
vt 0.118938 0.718253
vt 0.118290 0.717493
vt 0.033489 0.778355
vt 0.030520 0.778365
vt 0.118959 0.720528
vt 0.118980 0.701817
vt 0.119006 0.699854
vt 0.122033 0.699901
vt 0.119453 0.701969
vt 0.118325 0.702581
vt 0.118736 0.702693
vt 0.119627 0.702481
vt 0.118868 0.703121
vt 0.033481 0.775461
vt 0.030512 0.775555
vt 0.121979 0.702442
vt 0.016826 0.723904
vt 0.013938 0.723903
vt 0.013938 0.720270
vt 0.016826 0.720272
vt 0.016835 0.702290
vt 0.013947 0.702288
vt 0.013949 0.698945
vt 0.016837 0.698946
vt 0.013939 0.717243
vt 0.016828 0.717245
vt 0.013941 0.714566
vt 0.016829 0.714568
vt 0.122723 0.721144
vt 0.118983 0.721431
vt 0.122985 0.717689
vt 0.122796 0.699232
vt 0.123065 0.702404
vt 0.119029 0.698945
vt 0.123086 0.705194
vt 0.122021 0.705201
vt 0.016834 0.704125
vt 0.013946 0.704124
vt 0.030513 0.776226
vt 0.033481 0.776216
vt 0.121966 0.715750
vt 0.119633 0.715635
vt 0.118849 0.715819
vt 0.033480 0.775824
vt 0.030512 0.775869
vt 0.013943 0.709765
vt 0.016831 0.709767
vt 0.123022 0.715792
vt 0.122030 0.710072
vt 0.123080 0.710077
vt 0.030562 0.759334
vt 0.033531 0.759349
vt 0.033521 0.761241
vt 0.030552 0.761225
vt 0.033519 0.761562
vt 0.030551 0.761525
vt 0.030541 0.764987
vt 0.033510 0.764995
vt 0.119459 0.705624
vt 0.118764 0.705234
vt 0.118875 0.704980
vt 0.119666 0.705221
vt 0.030567 0.758382
vt 0.033536 0.758398
vt 0.033534 0.758861
vt 0.030565 0.758845
vt 0.118493 0.705350
vt 0.119081 0.705888
vt 0.030550 0.761827
vt 0.033518 0.761893
vt 0.119065 0.714936
vt 0.118444 0.715403
vt 0.119458 0.715166
vt 0.119107 0.710061
vt 0.118753 0.715490
vt 0.016832 0.813102
vt 0.013944 0.813102
vt 0.013944 0.809469
vt 0.016832 0.809469
vt 0.058433 0.702586
vt 0.057775 0.701822
vt 0.033756 0.847701
vt 0.030787 0.847728
vt 0.030753 0.843933
vt 0.033721 0.843906
vt 0.062240 0.710062
vt 0.061420 0.710069
vt 0.060426 0.707299
vt 0.061080 0.706741
vt 0.061103 0.713745
vt 0.060423 0.713232
vt 0.016836 0.873709
vt 0.013948 0.873710
vt 0.057195 0.717664
vt 0.057366 0.718179
vt 0.054766 0.720539
vt 0.054852 0.717713
vt 0.030714 0.838267
vt 0.033683 0.838257
vt 0.033684 0.838745
vt 0.030716 0.838755
vt 0.058080 0.717462
vt 0.057957 0.717026
vt 0.057834 0.718333
vt 0.058481 0.717584
vt 0.030713 0.837803
vt 0.033681 0.837793
vt 0.057815 0.720609
vt 0.057303 0.701977
vt 0.054704 0.699920
vt 0.057743 0.699857
vt 0.058022 0.702700
vt 0.057130 0.702491
vt 0.057891 0.703128
vt 0.030723 0.840613
vt 0.033692 0.840688
vt 0.054780 0.702462
vt 0.016831 0.788144
vt 0.013943 0.788144
vt 0.013942 0.784512
vt 0.016830 0.784511
vt 0.013944 0.806126
vt 0.016832 0.806125
vt 0.016831 0.791171
vt 0.013943 0.791171
vt 0.016831 0.793848
vt 0.013943 0.793848
vt 0.057716 0.698945
vt 0.057791 0.721513
vt 0.054033 0.721222
vt 0.053775 0.717750
vt 0.053699 0.702431
vt 0.053927 0.699256
vt 0.013944 0.804290
vt 0.016832 0.804290
vt 0.054746 0.705218
vt 0.053681 0.705212
vt 0.033688 0.839933
vt 0.030720 0.839943
vt 0.054806 0.715799
vt 0.057153 0.715687
vt 0.057947 0.715880
vt 0.033690 0.840326
vt 0.030721 0.840299
vt 0.013943 0.798649
vt 0.016831 0.798649
vt 0.053742 0.715841
vt 0.053686 0.710101
vt 0.054740 0.710095
vt 0.030853 0.854942
vt 0.033822 0.854908
vt 0.033843 0.856799
vt 0.030875 0.856833
vt 0.033818 0.854587
vt 0.030850 0.854642
vt 0.033787 0.851153
vt 0.030818 0.851180
vt 0.057310 0.705635
vt 0.057100 0.705232
vt 0.057889 0.704987
vt 0.058003 0.705239
vt 0.030881 0.857321
vt 0.033849 0.857287
vt 0.033854 0.857751
vt 0.030886 0.857785
vt 0.057691 0.705899
vt 0.058282 0.705358
vt 0.033815 0.854256
vt 0.030847 0.854340
vt 0.058357 0.715419
vt 0.057727 0.714970
vt 0.057672 0.710081
vt 0.057329 0.715209
vt 0.058052 0.715543
vt 0.089497 0.740128
vt 0.073079 0.740134
vt 0.073072 0.732658
vt 0.089497 0.732651
vt 0.030886 0.698945
vt 0.033854 0.698960
vt 0.016837 0.877341
vt 0.013949 0.877343
vt 0.089497 0.747617
vt 0.073069 0.747631
vt 0.105927 0.732653
vt 0.105912 0.740135
vt 0.058766 0.740148
vt 0.058759 0.732672
vt 0.058764 0.747626
vt 0.105923 0.747631
vt 0.120232 0.732671
vt 0.120223 0.740147
vt 0.120227 0.747624
vn -1.0000 0.0000 0.0000
vn 0.0000 1.0000 0.0000
vn 1.0000 0.0000 0.0000
vn 0.0000 0.0000 1.0000
vn 0.3519 0.6183 0.7028
vn 0.0000 0.0000 -1.0000
vn 0.0000 0.9877 0.1563
vn 0.0000 -1.0000 0.0000
vn -0.3519 0.6183 0.7028
vn 0.9537 -0.3006 -0.0000
vn 0.6752 0.2403 0.6974
vn 0.6966 0.0133 0.7173
vn 0.6967 0.0098 0.7173
vn 0.5480 -0.4345 0.7147
vn 0.5473 -0.4355 0.7147
vn 0.9901 0.1405 -0.0002
vn 0.9901 0.1406 -0.0002
vn 0.9605 0.2783 -0.0001
vn 0.6746 0.0599 0.7357
vn 0.6406 0.1164 0.7590
vn 0.6039 0.1715 0.7784
vn 0.1016 0.6478 0.7550
vn 0.0514 0.6785 0.7328
vn 0.1491 0.6163 0.7733
vn 0.2496 0.9684 0.0000
vn 0.1258 0.9921 0.0000
vn 0.0514 -0.6786 0.7327
vn 0.1016 -0.6479 0.7549
vn 0.1490 -0.6164 0.7732
vn 0.6406 -0.1164 0.7590
vn 0.6746 -0.0599 0.7357
vn 0.6039 -0.1715 0.7784
vn 0.5069 -0.8620 0.0002
vn 0.3593 -0.9332 0.0044
vn 0.3526 -0.9358 0.0046
vn -1.0000 0.0000 0.0006
vn -0.0011 -0.8318 0.5551
vn -0.0005 -0.8331 0.5531
vn -0.7572 0.0226 0.6528
vn -0.7326 0.0111 0.6806
vn -0.7330 0.0113 0.6802
vn -0.7475 -0.0199 0.6640
vn -0.7279 -0.0100 0.6856
vn -0.7277 -0.0098 0.6858
vn 0.0026 0.8382 0.5453
vn 0.0013 0.8353 0.5498
vn -0.7077 0.0000 0.7065
vn 0.9913 -0.1313 -0.0032
vn 0.6891 -0.1238 0.7140
vn 0.6910 -0.1136 0.7138
vn 0.1950 -0.9808 0.0087
vn 0.9655 -0.2604 -0.0061
vn 0.9901 -0.1405 -0.0002
vn 0.9790 0.2037 -0.0018
vn 0.9170 0.3989 -0.0033
vn 0.9438 0.3306 0.0000
vn 0.5084 0.4885 0.7092
vn 0.4707 0.5354 0.7012
vn 0.6749 0.1542 0.7216
vn 0.6711 0.1684 0.7220
vn 0.1258 -0.9921 0.0000
vn 0.2495 -0.9684 0.0000
vn 0.9605 -0.2782 -0.0001
vn 0.3211 0.6626 0.6767
vn 0.3234 0.6685 0.6697
vn 0.3162 0.6500 0.6910
vn 0.3978 0.9175 0.0004
vn 0.3985 0.9171 0.0004
vn 0.4292 0.9032 -0.0001
vn 0.2960 -0.7289 0.6173
vn 0.3306 -0.6878 0.6463
vn 0.2406 -0.7869 0.5682
vn 0.6630 -0.2367 0.7102
vn 0.3667 0.9303 0.0009
vn -0.0514 -0.6786 0.7327
vn -0.1017 -0.6480 0.7548
vn -0.9538 -0.3004 -0.0000
vn -0.6970 0.0098 0.7170
vn -0.6969 0.0133 0.7170
vn -0.6754 0.2403 0.6972
vn -0.5475 -0.4355 0.7146
vn -0.5482 -0.4346 0.7146
vn -0.9607 0.2775 0.0000
vn -0.9901 0.1401 0.0000
vn -0.6043 0.1716 0.7780
vn -0.6410 0.1165 0.7586
vn -0.6751 0.0600 0.7353
vn -0.1017 0.6479 0.7549
vn -0.1491 0.6164 0.7732
vn -0.0514 0.6786 0.7327
vn -0.1255 0.9921 0.0000
vn -0.1256 0.9921 0.0000
vn -0.2491 0.9685 0.0000
vn -0.1491 -0.6165 0.7731
vn -0.6410 -0.1165 0.7586
vn -0.6043 -0.1716 0.7780
vn -0.6751 -0.0599 0.7353
vn -0.3527 -0.9357 0.0045
vn -0.3594 -0.9332 0.0044
vn -0.5069 -0.8620 0.0001
vn -0.0013 0.8353 0.5498
vn 0.0011 -0.8318 0.5551
vn 0.0005 -0.8331 0.5531
vn 0.7321 0.0113 0.6811
vn 0.7318 0.0111 0.6814
vn 0.7563 0.0226 0.6538
vn 0.7467 -0.0199 0.6649
vn 0.7269 -0.0098 0.6867
vn 0.7271 -0.0099 0.6864
vn -0.0026 0.8382 0.5453
vn 0.7069 0.0000 0.7073
vn -0.9913 -0.1319 -0.0030
vn -0.6894 -0.1242 0.7136
vn -0.6913 -0.1140 0.7135
vn -0.1952 -0.9807 0.0086
vn -0.9652 -0.2614 -0.0059
vn -0.9789 0.2043 -0.0016
vn -0.9789 0.2044 -0.0016
vn -0.9901 -0.1401 0.0000
vn -0.9165 0.4000 -0.0032
vn -0.9438 0.3304 0.0000
vn -0.5085 0.4883 0.7092
vn -0.6712 0.1686 0.7218
vn -0.6751 0.1543 0.7214
vn -0.4708 0.5354 0.7012
vn -0.2491 -0.9685 0.0000
vn -0.1256 -0.9921 0.0000
vn -0.1255 -0.9921 0.0000
vn -0.9607 -0.2774 0.0000
vn -0.3163 0.6502 0.6908
vn -0.3237 0.6685 0.6696
vn -0.3213 0.6626 0.6765
vn -0.4291 0.9033 0.0000
vn -0.3989 0.9170 0.0005
vn -0.3982 0.9173 0.0005
vn -0.3306 -0.6878 0.6463
vn -0.2960 -0.7289 0.6173
vn -0.2406 -0.7869 0.5682
vn -0.6630 -0.2374 0.7100
vn 0.0021 0.0235 0.9997
vn -0.0229 0.0223 0.9995
vn -0.0261 -0.0047 0.9996
vn 0.0042 -0.0152 0.9999
vn -0.3676 0.9300 0.0010
vn 0.0000 0.0623 0.9981
vn -0.0197 0.0493 0.9986
vn 0.0255 -0.0230 0.9994
vn 0.0226 0.0132 0.9997
vn -0.0277 0.0166 0.9995
vn -0.0363 -0.0032 0.9993
vn -0.0190 0.0364 0.9992
vn 0.0197 0.0493 0.9986
vn 0.0268 -0.0216 0.9994
vn 0.0229 0.0074 0.9997
vn 0.0190 0.0364 0.9992
s 1
f 6/1/1 5/2/1 3/3/1 4/4/1
f 12/5/2 9/6/2 3/7/2 5/8/2
f 20/9/2 11/10/2 7/11/2 21/12/2
f 11/13/3 12/14/3 8/15/3 7/16/3
f 10/17/3 9/18/3 12/14/3 11/13/3
f 1/19/1 2/20/1 5/2/1 6/1/1
f 19/21/4 18/22/4 9/23/4 10/24/4
f 8/25/5 12/5/5 5/8/5 2/26/5
f 9/6/2 18/27/2 17/28/2 3/7/2
f 8/15/6 22/29/6 21/30/6 7/16/6
f 11/10/2 20/9/2 19/31/2 10/32/2
f 1/19/4 14/33/4 13/34/4 2/20/4
f 8/25/7 2/26/7 13/35/7 22/36/7
f 6/37/8 4/38/8 16/39/8 15/40/8
f 4/41/6 3/42/6 17/43/6 16/44/6
f 6/37/8 15/40/8 14/45/8 1/46/8
f 28/47/3 26/48/3 25/49/3 27/50/3
f 34/51/2 27/52/2 25/53/2 31/54/2
f 20/9/2 21/12/2 29/55/2 33/56/2
f 33/57/1 29/58/1 30/59/1 34/60/1
f 32/61/1 33/57/1 34/60/1 31/62/1
f 23/63/3 28/47/3 27/50/3 24/64/3
f 19/21/4 32/65/4 31/66/4 18/22/4
f 30/67/9 24/68/9 27/52/9 34/51/9
f 31/54/2 25/53/2 17/28/2 18/27/2
f 30/59/6 29/58/6 21/30/6 22/29/6
f 33/56/2 32/69/2 19/31/2 20/9/2
f 23/63/4 24/64/4 13/34/4 14/33/4
f 30/67/7 22/36/7 13/35/7 24/68/7
f 28/70/8 15/40/8 16/39/8 26/71/8
f 26/72/6 16/44/6 17/43/6 25/73/6
f 28/70/8 23/74/8 14/45/8 15/40/8
f 57/75/10 59/76/10 40/77/10 38/78/10
f 48/79/11 49/80/11 58/81/12 57/82/13
f 57/82/13 58/81/12 60/83/14 59/84/15
f 52/85/4 93/86/4 85/87/4 65/88/4
f 64/89/16 51/90/17 66/91/18 67/92/18
f 51/93/19 52/85/20 65/88/21 66/94/21
f 53/95/22 50/96/23 66/94/24 65/88/24
f 67/92/25 66/91/25 50/97/26 63/98/26
f 85/87/4 87/99/4 53/95/4 65/88/4
f 43/100/4 91/101/4 89/102/4 68/103/4
f 42/104/27 43/100/28 68/103/29 69/105/29
f 44/106/30 41/107/31 69/105/32 68/103/32
f 40/77/33 59/76/33 73/108/34 74/109/35
f 89/102/4 97/110/4 44/106/4 68/103/4
f 90/111/2 78/112/2 77/113/2 88/114/2
f 92/115/36 79/116/36 75/117/36 84/118/36
f 88/114/36 77/113/36 81/119/36 96/120/36
f 96/120/36 81/119/36 83/121/36 100/122/36
f 85/87/37 84/123/37 86/124/38 87/99/38
f 84/123/39 85/87/39 93/86/40 92/125/41
f 89/102/42 88/126/42 96/127/43 97/110/44
f 88/126/45 89/102/45 91/101/46 90/128/46
f 97/110/44 96/127/43 100/129/47 101/130/47
f 79/116/36 92/115/36 94/131/36 80/132/36
f 39/133/48 54/134/48 51/90/17 64/89/16
f 95/135/4 93/86/4 52/85/4 56/136/4
f 56/136/49 52/85/20 51/93/19 54/137/50
f 104/138/51 103/139/51 74/109/35 73/108/34
f 103/139/52 104/138/52 54/134/48 39/133/48
f 82/140/36 98/141/36 100/122/36 83/121/36
f 80/132/36 94/131/36 98/141/36 82/140/36
f 92/125/41 93/86/40 95/135/47 94/142/47
f 94/142/47 95/135/47 99/143/47 98/144/47
f 61/145/53 41/146/53 45/147/54 37/148/54
f 106/149/55 105/150/55 37/148/54 45/147/54
f 36/151/56 48/152/56 57/75/56 38/78/56
f 107/153/57 106/154/58 45/155/59 46/156/60
f 44/106/4 97/110/4 101/130/4 46/156/4
f 62/157/61 42/158/61 69/159/62 70/160/62
f 41/107/31 44/106/30 46/156/60 45/155/59
f 41/146/53 61/145/53 70/160/63 69/159/63
f 71/161/64 47/162/65 49/80/66 48/79/66
f 72/163/67 71/164/68 48/152/69 36/151/69
f 60/83/14 55/165/70 73/166/71 59/84/15
f 99/143/4 102/167/4 55/165/4 35/168/4
f 35/168/4 58/81/4 49/80/4 47/162/4
f 35/168/4 55/165/4 60/83/4 58/81/4
f 46/156/4 101/130/4 99/143/4 107/153/4
f 55/165/70 102/167/72 104/169/72 73/166/71
f 104/169/73 102/167/73 56/136/49 54/137/50
f 101/130/47 100/129/47 98/144/47 99/143/47
f 134/170/8 180/171/8 179/172/8 135/173/8
f 56/136/4 102/167/4 99/143/4 95/135/4
f 106/154/58 107/153/57 47/162/65 71/161/64
f 107/153/4 99/143/4 35/168/4 47/162/4
f 105/150/74 106/149/74 71/164/68 72/163/67
f 43/100/28 42/104/27 129/174/75 125/175/76
f 112/176/77 110/177/77 109/178/77 113/179/77
f 112/180/78 165/181/79 166/182/80 111/183/80
f 113/184/81 168/185/82 165/181/79 112/180/78
f 86/186/8 76/187/8 180/171/8 134/170/8
f 116/188/4 119/189/4 118/190/4 117/191/4
f 122/192/83 123/193/83 124/194/84 121/195/84
f 123/196/85 119/189/85 116/188/86 124/197/87
f 114/198/88 119/189/89 123/196/89 120/199/90
f 108/200/91 120/201/92 123/193/93 122/192/93
f 50/96/23 53/95/22 114/198/88 120/199/90
f 118/190/4 119/189/4 114/198/4 115/202/4
f 125/175/4 128/203/4 127/204/4 126/205/4
f 53/95/4 87/99/4 115/202/4 114/198/4
f 130/206/94 128/203/94 125/175/76 129/174/75
f 133/207/95 128/203/96 130/206/96 131/208/97
f 141/209/98 170/210/99 113/179/100 109/178/100
f 127/204/4 128/203/4 133/207/4 132/211/4
f 136/212/2 173/213/2 172/214/2 137/215/2
f 135/173/3 179/172/3 178/216/3 138/217/3
f 139/218/3 174/219/3 173/213/3 136/212/3
f 140/220/3 175/221/3 174/219/3 139/218/3
f 78/112/2 90/111/2 137/215/2 172/214/2
f 90/128/46 91/101/46 126/205/101 137/222/101
f 118/190/102 115/202/103 134/223/103 135/224/102
f 138/225/104 117/191/105 118/190/106 135/224/106
f 127/204/107 132/211/108 139/226/109 136/227/107
f 178/216/3 177/228/3 147/229/3 138/217/3
f 137/222/101 126/205/101 127/204/110 136/227/110
f 132/211/108 155/230/111 140/231/111 139/226/109
f 87/99/38 86/124/38 134/223/103 115/202/103
f 121/195/84 124/194/84 145/232/112 144/233/112
f 142/234/4 143/235/4 116/188/4 117/191/4
f 143/235/113 145/236/114 124/197/87 116/188/86
f 171/237/115 170/210/99 141/209/98 146/238/115
f 144/233/112 145/232/112 171/237/116 146/238/116
f 176/239/3 175/221/3 140/220/3 148/240/3
f 177/228/3 176/239/3 148/240/3 147/229/3
f 147/241/111 142/234/111 117/191/105 138/225/104
f 148/242/111 161/243/111 142/234/111 147/241/111
f 149/244/117 154/245/118 131/246/119 150/247/119
f 153/248/120 154/245/118 149/244/117 151/249/120
f 110/177/121 112/176/121 111/250/121 152/251/121
f 169/252/122 156/253/123 154/254/124 153/255/125
f 63/98/26 50/97/26 120/201/92 108/200/91
f 133/207/4 156/253/4 155/230/4 132/211/4
f 158/256/126 130/257/126 129/258/127 157/259/128
f 154/254/124 156/253/123 133/207/95 131/208/97
f 131/246/119 130/257/129 158/256/129 150/247/119
f 111/183/130 166/182/130 167/260/131 159/261/132
f 152/251/133 111/250/133 159/262/134 160/263/135
f 168/185/82 113/184/81 170/264/136 163/265/137
f 161/243/4 164/266/4 163/265/4 162/267/4
f 164/266/4 167/260/4 166/182/4 165/181/4
f 164/266/4 165/181/4 168/185/4 163/265/4
f 156/253/4 169/252/4 161/243/4 155/230/4
f 163/265/137 170/264/136 171/268/138 162/267/138
f 145/236/114 143/235/113 162/267/139 171/268/139
f 155/230/111 161/243/111 148/242/111 140/231/111
f 181/269/140 182/270/141 185/271/142 183/272/143
f 143/235/4 142/234/4 161/243/4 162/267/4
f 159/261/132 167/260/131 169/252/122 153/255/125
f 169/252/4 167/260/4 164/266/4 161/243/4
f 160/263/135 159/262/134 153/248/144 151/249/144
f 42/158/61 62/157/61 157/273/128 129/274/127
f 84/275/8 75/276/8 76/187/8 86/186/8
f 91/101/4 43/100/4 125/175/4 126/205/4
f 182/270/141 181/269/140 184/277/145 186/278/146
f 183/272/143 191/279/147 190/280/148 181/269/140
f 185/271/142 182/270/141 188/281/149 187/282/150
f 182/270/141 186/278/146 189/283/151 188/281/149
f 190/280/148 192/284/152 184/277/145 181/269/140
f 191/279/147 194/285/153 193/286/154 190/280/148
f 190/280/148 193/286/154 195/287/155 192/284/152
